<svg xmlns="http://www.w3.org/2000/svg" xmlns:xlink="http://www.w3.org/1999/xlink" viewBox="0 0 47.99 66.62"><defs><style>.cls-1,.cls-2,.cls-3,.cls-4{fill-rule:evenodd;}.cls-1{fill:url(#Ѕезым_нный_градиент_644);}.cls-2{fill:url(#Ѕезым_нный_градиент_654);}.cls-3{fill:url(#Ѕезым_нный_градиент_654-2);}.cls-4{fill:url(#Ѕезым_нный_градиент_640);}</style><linearGradient id="Ѕезым_нный_градиент_644" x1="-86.91" y1="-1055.69" x2="-86.91" y2="-1117.13" gradientTransform="translate(462.05 1033.21) rotate(-18.98)" gradientUnits="userSpaceOnUse"><stop offset="0" stop-color="#3d2888"/><stop offset="0.26" stop-color="#311b7b"/><stop offset="0.65" stop-color="#240e6e"/><stop offset="1" stop-color="#200969"/></linearGradient><linearGradient id="Ѕезым_нный_градиент_654" x1="-107.02" y1="-1066.46" x2="-70.6" y2="-1066.46" gradientTransform="translate(462.05 1033.21) rotate(-18.98)" gradientUnits="userSpaceOnUse"><stop offset="0" stop-color="#01003e"/><stop offset="1" stop-color="#1b0531"/></linearGradient><linearGradient id="Ѕезым_нный_градиент_654-2" x1="-112.01" y1="-1084.25" x2="-78.46" y2="-1084.25" xlink:href="#Ѕезым_нный_градиент_654"/><linearGradient id="Ѕезым_нный_градиент_640" x1="-70.84" y1="-1071.64" x2="-70.84" y2="-1116.85" gradientTransform="translate(462.05 1033.21) rotate(-18.98)" gradientUnits="userSpaceOnUse"><stop offset="0" stop-color="#638afe"/><stop offset="1" stop-color="#5234de"/></linearGradient></defs><g id="Слой_2" data-name="Слой 2"><g id="space_background" data-name="space background"><path class="cls-1" d="M13.88,59.4l12.67,7.22A76.86,76.86,0,0,0,46.68,42.84l-1.36-16.4L48,19.57,32.2,0S12.44,3.27,0,24.92L3.73,45.28,14,48Z"/><path class="cls-2" d="M13.88,59.4S23.5,46.78,37.44,40.1l9.24,2.74A82.85,82.85,0,0,1,26.55,66.62Z"/><path class="cls-3" d="M14,48,34.45,31.42l-1.54-4.48S19.69,31.86,3.73,45.28Z"/><polygon class="cls-4" points="32.2 0 26.88 9.4 31.56 27.4 34.45 31.42 32.65 15.94 34.69 12.92 37.44 40.1 46.68 42.84 45.32 26.44 47.99 19.57 32.2 0"/></g></g></svg>