<?xml version="1.0" encoding="utf-8"?>
<!-- Generator: Adobe Illustrator 26.0.2, SVG Export Plug-In . SVG Version: 6.00 Build 0)  -->
<svg version="1.1" id="Слой_1" xmlns="http://www.w3.org/2000/svg" xmlns:xlink="http://www.w3.org/1999/xlink" x="0px" y="0px"
	 viewBox="0 0 140.9 113" style="enable-background:new 0 0 140.9 113;" xml:space="preserve">
<style type="text/css">
	.st0{fill-rule:evenodd;clip-rule:evenodd;fill:url(#SVGID_1_);}
	.st1{fill-rule:evenodd;clip-rule:evenodd;fill:url(#SVGID_00000118385316311536924120000001770460652839355322_);}
	.st2{fill-rule:evenodd;clip-rule:evenodd;fill:url(#SVGID_00000023279457922406565830000005338766021055283087_);}
	.st3{fill-rule:evenodd;clip-rule:evenodd;fill:url(#SVGID_00000162333786571933995630000009666225140588291514_);}
	.st4{fill-rule:evenodd;clip-rule:evenodd;fill:url(#SVGID_00000144317185491462580670000010894467712280431265_);}
	.st5{fill-rule:evenodd;clip-rule:evenodd;fill:url(#SVGID_00000120522304363777285230000001169455591439648955_);}
	.st6{fill-rule:evenodd;clip-rule:evenodd;fill:#756ACA;}
	
		.st7{opacity:0.5;fill-rule:evenodd;clip-rule:evenodd;fill:url(#SVGID_00000164485691084768226560000015366224113328000901_);enable-background:new    ;}
	.st8{fill-rule:evenodd;clip-rule:evenodd;fill:#3E1099;}
	.st9{fill-rule:evenodd;clip-rule:evenodd;fill:#4D3AAD;}
	.st10{fill-rule:evenodd;clip-rule:evenodd;fill:#5D3ACC;}
	
		.st11{opacity:0.5;fill-rule:evenodd;clip-rule:evenodd;fill:url(#SVGID_00000140727290322047330730000011122306805232722586_);enable-background:new    ;}
	.st12{fill-rule:evenodd;clip-rule:evenodd;fill:url(#SVGID_00000103264670238643056910000007565556437047300264_);}
	.st13{fill-rule:evenodd;clip-rule:evenodd;fill:#5954A3;}
	.st14{fill-rule:evenodd;clip-rule:evenodd;fill:url(#SVGID_00000115495938807212809670000014491790248695362473_);}
	.st15{fill-rule:evenodd;clip-rule:evenodd;fill:#7551BB;}
</style>
<g>
	<g id="Слой_2_00000120523486135852465700000003615744040481115069_">
		<g id="space_background">
			
				<linearGradient id="SVGID_1_" gradientUnits="userSpaceOnUse" x1="-236.1299" y1="737.5352" x2="-236.1299" y2="838.3821" gradientTransform="matrix(0.9456 -0.3252 -0.3252 -0.9456 552.1393 729.3914)">
				<stop  offset="0" style="stop-color:#3D2888"/>
				<stop  offset="0.26" style="stop-color:#311B7B"/>
				<stop  offset="0.65" style="stop-color:#240E6E"/>
				<stop  offset="1" style="stop-color:#200969"/>
			</linearGradient>
			<path class="st0" d="M140.9,27.8c0,0-2.3,5.2-5.5,11c-2.3,4.4-5,8.5-8.1,12.3l-3.5,3.6L95.1,83.9l-0.7,4.3l-0.6,3.3l-0.5,2.9
				l-4.4,14.2c0,0-8.5,3.3-12.8,4.4L61,104.4l-8.8-5l-5.6-3.2l-4.5,0.1l-3.6,0.1l-6.1,0.1L18.1,90l-3-1.3l-2.8-1.2l-6-2.7L0,81.8
				c0,0,2.1-5.9,4.4-8l1.4-11c0,0,12.7-24,21-32C48.4,18.1,71.4,7.7,95.3,0l5.4,9.4l6.3-2.9l13.2,8.3l9.2,5.8l8.9,5.6h0.1l0.6,0.4
				L140.9,27.8z"/>
			
				<linearGradient id="SVGID_00000147922610097156942410000005083977123163149479_" gradientUnits="userSpaceOnUse" x1="-277.558" y1="737.7056" x2="-277.558" y2="826.9777" gradientTransform="matrix(0.9456 -0.3252 -0.3252 -0.9456 552.1393 729.3914)">
				<stop  offset="0" style="stop-color:#638AFE"/>
				<stop  offset="1" style="stop-color:#5234DE"/>
			</linearGradient>
			<path style="fill-rule:evenodd;clip-rule:evenodd;fill:url(#SVGID_00000147922610097156942410000005083977123163149479_);" d="
				M21.3,37.5l13.9,23.8l17.7,6.6l2.2,4l1.8,9.7L78.7,102l-2.6,11L46.6,96.2l-14.3,0.2L0,81.8l4.4-9.2l1.3-9.8
				C5.7,62.8,17.4,42.3,21.3,37.5z"/>
			
				<linearGradient id="SVGID_00000121964917982913854190000003141641970759308197_" gradientUnits="userSpaceOnUse" x1="-250.5414" y1="787.0486" x2="-250.5414" y2="807.4597" gradientTransform="matrix(0.9456 -0.3252 -0.3252 -0.9456 552.1393 729.3914)">
				<stop  offset="0" style="stop-color:#240061"/>
				<stop  offset="1" style="stop-color:#1B0531"/>
			</linearGradient>
			<path style="fill-rule:evenodd;clip-rule:evenodd;fill:url(#SVGID_00000121964917982913854190000003141641970759308197_);" d="
				M23.4,78l11.8-16.8l52.9-26.1l-1.5,6.6L52.9,67.8C52.9,67.8,36.5,75.7,23.4,78z"/>
			
				<linearGradient id="SVGID_00000126289860398715068920000007715323049648458922_" gradientUnits="userSpaceOnUse" x1="-285.6909" y1="778.1026" x2="-160.7667" y2="778.1026" gradientTransform="matrix(0.9456 -0.3252 -0.3252 -0.9456 552.1393 729.3914)">
				<stop  offset="0" style="stop-color:#240061"/>
				<stop  offset="1" style="stop-color:#1B0531"/>
			</linearGradient>
			
				<polygon style="fill-rule:evenodd;clip-rule:evenodd;fill:url(#SVGID_00000126289860398715068920000007715323049648458922_);" points="
				32.3,96.4 55.1,71.8 83.2,54 140.8,27.8 127.3,51.1 95.1,83.9 56.8,81.4 47.9,95.7 			"/>
			
				<linearGradient id="SVGID_00000125580804733617692190000013438120353949364622_" gradientUnits="userSpaceOnUse" x1="-238.5098" y1="737.7187" x2="-238.5098" y2="749.6909" gradientTransform="matrix(0.9456 -0.3252 -0.3252 -0.9456 552.1393 729.3914)">
				<stop  offset="0" style="stop-color:#240061"/>
				<stop  offset="1" style="stop-color:#1B0531"/>
			</linearGradient>
			<path style="fill-rule:evenodd;clip-rule:evenodd;fill:url(#SVGID_00000125580804733617692190000013438120353949364622_);" d="
				M76.1,113l2.6-11l14.6-7.6c0,0-1.9,10.1-4.4,14.2L76.1,113z"/>
			
				<linearGradient id="SVGID_00000109000245575768693040000005180965465968225441_" gradientUnits="userSpaceOnUse" x1="-204.6228" y1="801.6693" x2="-204.6228" y2="838.3273" gradientTransform="matrix(0.9456 -0.3252 -0.3252 -0.9456 552.1393 729.3914)">
				<stop  offset="0" style="stop-color:#01003E"/>
				<stop  offset="1" style="stop-color:#1B0531"/>
			</linearGradient>
			
				<polygon style="fill-rule:evenodd;clip-rule:evenodd;fill:url(#SVGID_00000109000245575768693040000005180965465968225441_);" points="
				86.7,41.7 100.7,9.4 95.3,0 88.2,35.1 			"/>
			<polygon class="st6" points="34,63 34,59 40.9,58.6 			"/>
			<polygon class="st6" points="76.8,100.2 78,106.7 80.6,101 			"/>
			
				<linearGradient id="SVGID_00000101080855051829588270000013249330311677451939_" gradientUnits="userSpaceOnUse" x1="-288.1259" y1="792.5983" x2="-216.4964" y2="792.5983" gradientTransform="matrix(0.9456 -0.3252 -0.3252 -0.9456 552.1393 729.3914)">
				<stop  offset="0" style="stop-color:#B87CBD"/>
				<stop  offset="1" style="stop-color:#451391"/>
			</linearGradient>
			
				<polygon style="opacity:0.5;fill-rule:evenodd;clip-rule:evenodd;fill:url(#SVGID_00000101080855051829588270000013249330311677451939_);enable-background:new    ;" points="
				23.4,78 55.1,71.8 83.2,54 86.7,41.7 52.9,67.8 			"/>
			<path class="st8" d="M129.4,20.6c-1.4-0.1-2.9-0.3-4.3-0.7c-8.2-2.3-16.8-3.2-25.4-2.5c-2.1,0.3-4.2,0.2-6.3-0.1
				c-0.9-0.3-1.8-0.4-2.7-0.5c-1.1,0.1-2.1,0.5-3,1.1c-18,9.7-39.6,13-54.9,26.5c-1.8,1.5-3.4,3.4-4.7,5.4
				c-2.2,3.7-2.6,8.3-4.4,12.3c-1.6,3.3-4.1,6.1-6.1,9.2c-2.7,4.1-4.9,9.3-5.2,14.2c0,0.7,0,1.4,0,2.1l-6-2.7
				c4.6-8.8,10.9-16.7,14.3-26c2-5.4,3.5-11.2,7.1-15.8c3-3.8,7.4-6.4,11.6-8.8C54.7,25.8,71,19.3,87.3,12.9
				c1.7-0.7,3.4-1.3,5.2-1.6c1.4-0.2,2.9-0.2,4.3,0c7.9,0.5,15.7,1.7,23.3,3.5L129.4,20.6z"/>
			<path class="st9" d="M139.8,27.5c-11.9,3.3-24.6,0.3-36.9,0.5C81.7,28.4,62,38.2,43.2,47.8c-3,1.3-5.7,3.1-8.2,5.2
				c-2.8,2.6-4.6,6-6.3,9.5c-1.3,2.6-7,19.1-10.5,27.5l-3-1.3c1.5-2.1,2.8-4.4,3.8-6.9c3.3-7.7,7-15.4,9.8-23.3
				c0.7-1.9,1.7-3.8,3-5.4c1.2-1.2,2.5-2.2,4-3c16-9.7,32.8-18.1,50.2-25.1c1-0.6,2.2-0.7,3.4-0.5c1,0.4,1.7,1.3,2.7,1.9
				c2.6,1.5,5.7-0.7,8.5-1.5c3.8-1.1,7.9,0.1,11.8,0.9c6.5,1.3,13.2,1.5,19.7,0.4c2.1-0.3,4.6-0.6,6.3,0.2h0.1l0.6,0.4
				C139.3,26.9,139.5,27.2,139.8,27.5z"/>
			<path class="st10" d="M94.4,88.2l-0.6,3.3C86.6,90,79.2,90,72,91.4c-2.2,0.4-4.6,1.1-6.2,2.7c-1.2,1.3-2.1,2.8-2.6,4.4
				c-0.8,1.9-1.6,3.9-2.2,5.9l-8.8-5c3.5-3.9,7.5-8.8,12.1-10.4c1.5-0.5,3.1-0.9,4.8-1l14.5-1.8c2.6-0.3,5.3-0.6,7.8,0.2
				C92.5,86.7,93.5,87.3,94.4,88.2z"/>
			
				<linearGradient id="SVGID_00000086668912773535370920000011247540683300148652_" gradientUnits="userSpaceOnUse" x1="-279.8714" y1="776.6194" x2="-169.5042" y2="776.6194" gradientTransform="matrix(0.9456 -0.3252 -0.3252 -0.9456 552.1393 729.3914)">
				<stop  offset="0" style="stop-color:#977CFF"/>
				<stop  offset="1" style="stop-color:#4513B6"/>
			</linearGradient>
			
				<path style="opacity:0.5;fill-rule:evenodd;clip-rule:evenodd;fill:url(#SVGID_00000086668912773535370920000011247540683300148652_);enable-background:new    ;" d="
				M135.4,38.8c-2.3,4.4-5,8.5-8.1,12.3l-3.5,3.6c-6.1-2.1-13.2,0.4-19.4,3L84.1,66c-9.5,3.9-19.1,7.9-27.5,13.9
				c-6,4.2-11,9.8-14.5,16.3l-3.6,0.1c2.9-4,7.5-8.3,8.7-9.7c4.2-4.9,8.5-9.8,13.7-13.6c8.8-6.4,19.6-9.1,29.6-13.2
				C105.7,53.5,119.7,43.7,135.4,38.8z"/>
			
				<linearGradient id="SVGID_00000071528230326721820920000015720438004691473319_" gradientUnits="userSpaceOnUse" x1="-304.7713" y1="818.2219" x2="-185.8322" y2="818.2219" gradientTransform="matrix(0.9456 -0.3252 -0.3252 -0.9456 552.1393 729.3914)">
				<stop  offset="0" style="stop-color:#01003E"/>
				<stop  offset="1" style="stop-color:#1B0531"/>
			</linearGradient>
			
				<polygon style="fill-rule:evenodd;clip-rule:evenodd;fill:url(#SVGID_00000071528230326721820920000015720438004691473319_);" points="
				5.7,62.8 9.4,68.1 30.2,52.7 35.8,43.7 54.6,39.4 90.1,14.7 94.9,12.1 95.3,0 100.7,9.4 107,6.5 94,14.9 56.3,39.7 39.7,47.7 
				30.9,54.1 10.1,69.7 4.4,73.8 			"/>
			<polygon class="st13" points="100.7,9.4 94.1,14.1 62,35.5 56.3,39.7 39.7,47.7 30.9,54.1 8.8,70.1 4.4,73.8 2.1,77.5 29.2,57.2 
				31.1,54.7 40.5,48.7 51.1,42.9 58.9,41.4 69.2,31.9 95.2,15.4 107,6.5 			"/>
			
				<linearGradient id="SVGID_00000003810752018981220130000000108893577116620689_" gradientUnits="userSpaceOnUse" x1="-189.1258" y1="793.1686" x2="-189.1258" y2="797.1895" gradientTransform="matrix(0.9456 -0.3252 -0.3252 -0.9456 552.1393 729.3914)">
				<stop  offset="0" style="stop-color:#01003E"/>
				<stop  offset="1" style="stop-color:#1B0531"/>
			</linearGradient>
			
				<polygon style="fill-rule:evenodd;clip-rule:evenodd;fill:url(#SVGID_00000003810752018981220130000000108893577116620689_);" points="
				106.1,43.5 117.1,36 123.7,35.6 114.8,41 			"/>
			<polygon class="st15" points="106.1,43.5 114.9,39.6 123.7,35.6 115,41.8 			"/>
		</g>
	</g>
</g>
</svg>
